<svg width="259" height="86" viewBox="0 0 259 86" xmlns="http://www.w3.org/2000/svg">
    <g fill="none" fill-rule="evenodd">
        <path d="M53.055 42.266h5.544v20.987h.192a109.271 109.271 0 0 1 3.377-4.65l13.127-16.337h6.883l-15.55 18.469 16.76 25.055h-6.564L62.741 64.416l-4.142 4.778V85.79h-5.544V42.266M94.728 62.672h5.672c5.926 0 9.686-3.293 9.686-8.266 0-5.618-4.015-8.072-9.878-8.072-2.676 0-4.524.193-5.48.453v15.885zm-5.544-19.825c2.804-.517 6.882-.904 10.642-.904 5.927 0 9.814 1.162 12.426 3.552 2.103 1.937 3.378 4.907 3.378 8.33 0 5.683-3.569 9.493-8.03 11.043v.193c3.25 1.163 5.226 4.263 6.245 8.783 1.402 6.07 2.422 10.267 3.314 11.946h-5.735c-.7-1.291-1.657-4.972-2.804-10.396-1.274-6.006-3.632-8.266-8.667-8.46h-5.225V85.79h-5.544V42.847zM146.469 67.71l-4.27-12.529c-.955-2.841-1.592-5.424-2.23-7.943h-.127c-.638 2.519-1.274 5.23-2.166 7.879l-4.206 12.592h12.999zm-14.147 4.39-4.46 13.69h-5.735l14.657-43.524h6.627l14.657 43.524h-5.928l-4.587-13.69h-15.23zM165.902 85.79h5.608V42.266h-5.608zM182.788 85.79V42.266h6.118l13.7 22.02c3.123 5.102 5.672 9.687 7.648 14.143l.19-.065c-.51-5.811-.637-11.107-.637-17.887v-18.21h5.226V85.79h-5.608l-13.637-22.085c-2.995-4.843-5.862-9.815-7.965-14.53l-.191.065c.317 5.49.381 10.72.381 17.952V85.79h-5.225M247.401 67.71l-4.269-12.529c-.955-2.841-1.593-5.424-2.23-7.943h-.127c-.638 2.519-1.275 5.23-2.167 7.879l-4.206 12.592h13zm-14.147 4.39-4.46 13.69h-5.735l14.657-43.524h6.627L259 85.79h-5.926l-4.589-13.69h-15.231zM18.259 9.06h11.833v2.411h-8.964v7.4h8.28v2.378h-8.28v10.076h-2.869V9.059M37.817 9.06v13.213c0 4.956 2.185 7.07 5.119 7.07 3.227 0 5.346-2.18 5.346-7.07V9.06h2.868v13.016c0 6.838-3.553 9.613-8.312 9.613-4.499 0-7.889-2.576-7.889-9.514V9.06h2.868M56.886 31.325V9.059h3.13l7.008 11.265c1.598 2.61 2.902 4.956 3.913 7.235l.098-.033c-.262-2.973-.327-5.682-.327-9.151V9.059h2.674v22.266h-2.87l-6.975-11.298c-1.533-2.478-3-5.021-4.075-7.433l-.098.033c.163 2.808.196 5.484.196 9.184v9.514h-2.674M81.985 29.079c.717.099 1.76.132 2.869.132 6.096 0 9.356-3.436 9.356-9.448.032-5.253-2.902-8.59-8.9-8.59-1.467 0-2.575.133-3.325.298v17.608zm-2.836-19.69a35.946 35.946 0 0 1 6.03-.495c4.075 0 6.977.991 8.9 2.775 1.989 1.817 3.13 4.394 3.13 7.995 0 3.633-1.141 6.607-3.162 8.655-2.087 2.08-5.477 3.205-9.747 3.205-2.054 0-3.717-.1-5.151-.265V9.389zM112.007 22.075l-2.185-6.409c-.489-1.453-.815-2.774-1.14-4.063h-.066c-.325 1.289-.652 2.676-1.108 4.03l-2.151 6.442h6.65zm-7.237 2.247-2.282 7.003h-2.934l7.498-22.266h3.39l7.498 22.266h-3.032l-2.347-7.003h-7.791zM136.813 30.631c-1.01.529-3.129 1.057-5.802 1.057-6.194 0-10.823-3.964-10.823-11.297 0-7.004 4.662-11.695 11.475-11.695 2.706 0 4.466.595 5.216.99l-.717 2.346c-1.044-.528-2.576-.924-4.402-.924-5.15 0-8.573 3.336-8.573 9.183 0 5.484 3.097 8.953 8.41 8.953 1.76 0 3.521-.363 4.663-.925l.553 2.312M145.809 9.06h2.869v14.898c0 5.913-2.87 7.73-6.65 7.73-1.077 0-2.348-.231-3.032-.528l.392-2.346c.586.232 1.433.43 2.412.43 2.542 0 4.009-1.156 4.009-5.517V9.06M165.01 22.075l-2.185-6.409c-.489-1.453-.815-2.774-1.14-4.063h-.066c-.327 1.289-.653 2.676-1.109 4.03l-2.151 6.442h6.65zm-7.238 2.247-2.282 7.003h-2.934l7.498-22.266h3.39l7.498 22.266h-3.032l-2.347-7.003h-7.79z" fill="#FFF"/>
        <path d="M37.278 42.27v10.973h.027c-.047 17.92-5.888 24.081-14.904 24.081-8.228 0-14.355-7.82-14.355-26.15V38.646L0 29.665v21.141C0 76.47 9.509 86 22.127 86c13.307 0 23.25-7.655 23.313-32.757h.003V42.271h-8.165" fill="#FFE32C"/>
        <path fill="#02ACEF" d="m0 22.535 8.04 8.62V8.62L0 0v22.535"/>
    </g>
</svg>
